<svg width="15" height="15" viewBox="0 0 11 18" fill="none" xmlns="http://www.w3.org/2000/svg">
<path d="M1.92478 3.72011C2.39146 3.72011 2.83903 3.53472 3.16902 3.20473C3.49902 2.87474 3.68441 2.42717 3.68441 1.96049C3.68441 1.49381 3.49902 1.04624 3.16902 0.716248C2.83903 0.386255 2.39146 0.200867 1.92478 0.200867C1.4581 0.200867 1.01054 0.386255 0.680543 0.716248C0.35055 1.04624 0.165161 1.49381 0.165161 1.96049C0.165161 2.42717 0.35055 2.87474 0.680543 3.20473C1.01054 3.53472 1.4581 3.72011 1.92478 3.72011ZM1.92478 10.7586C2.39146 10.7586 2.83903 10.5732 3.16902 10.2432C3.49902 9.91323 3.68441 9.46566 3.68441 8.99898C3.68441 8.5323 3.49902 8.08473 3.16902 7.75474C2.83903 7.42475 2.39146 7.23936 1.92478 7.23936C1.4581 7.23936 1.01054 7.42475 0.680543 7.75474C0.35055 8.08473 0.165161 8.5323 0.165161 8.99898C0.165161 9.46566 0.35055 9.91323 0.680543 10.2432C1.01054 10.5732 1.4581 10.7586 1.92478 10.7586ZM3.68441 16.0375C3.68441 16.5042 3.49902 16.9517 3.16902 17.2817C2.83903 17.6117 2.39146 17.7971 1.92478 17.7971C1.4581 17.7971 1.01054 17.6117 0.680543 17.2817C0.35055 16.9517 0.165161 16.5042 0.165161 16.0375C0.165161 15.5708 0.35055 15.1232 0.680543 14.7932C1.01054 14.4632 1.4581 14.2778 1.92478 14.2778C2.39146 14.2778 2.83903 14.4632 3.16902 14.7932C3.49902 15.1232 3.68441 15.5708 3.68441 16.0375V16.0375ZM8.96327 3.72011C9.42995 3.72011 9.87752 3.53472 10.2075 3.20473C10.5375 2.87474 10.7229 2.42717 10.7229 1.96049C10.7229 1.49381 10.5375 1.04624 10.2075 0.716248C9.87752 0.386255 9.42995 0.200867 8.96327 0.200867C8.49659 0.200867 8.04903 0.386255 7.71903 0.716248C7.38904 1.04624 7.20365 1.49381 7.20365 1.96049C7.20365 2.42717 7.38904 2.87474 7.71903 3.20473C8.04903 3.53472 8.49659 3.72011 8.96327 3.72011V3.72011ZM10.7229 8.99898C10.7229 9.46566 10.5375 9.91323 10.2075 10.2432C9.87752 10.5732 9.42995 10.7586 8.96327 10.7586C8.49659 10.7586 8.04903 10.5732 7.71903 10.2432C7.38904 9.91323 7.20365 9.46566 7.20365 8.99898C7.20365 8.5323 7.38904 8.08473 7.71903 7.75474C8.04903 7.42475 8.49659 7.23936 8.96327 7.23936C9.42995 7.23936 9.87752 7.42475 10.2075 7.75474C10.5375 8.08473 10.7229 8.5323 10.7229 8.99898ZM8.96327 17.7971C9.42995 17.7971 9.87752 17.6117 10.2075 17.2817C10.5375 16.9517 10.7229 16.5042 10.7229 16.0375C10.7229 15.5708 10.5375 15.1232 10.2075 14.7932C9.87752 14.4632 9.42995 14.2778 8.96327 14.2778C8.49659 14.2778 8.04903 14.4632 7.71903 14.7932C7.38904 15.1232 7.20365 15.5708 7.20365 16.0375C7.20365 16.5042 7.38904 16.9517 7.71903 17.2817C8.04903 17.6117 8.49659 17.7971 8.96327 17.7971V17.7971Z" fill="#CACEDB"/>
</svg>
