<svg width="18" height="15" viewBox="0 0 23 22" fill="none" xmlns="http://www.w3.org/2000/svg">
<path d="M13.8294 0.395905L0.419983 13.8053L8.61464 22L22.0241 8.59056V0.395905H13.8294ZM17.5543 6.35565C17.2596 6.35565 16.9715 6.26827 16.7265 6.10455C16.4815 5.94084 16.2905 5.70814 16.1777 5.43589C16.065 5.16364 16.0355 4.86406 16.093 4.57504C16.1504 4.28602 16.2923 4.02054 16.5007 3.81217C16.7091 3.6038 16.9746 3.4619 17.2636 3.40441C17.5526 3.34692 17.8522 3.37642 18.1244 3.48919C18.3967 3.60196 18.6294 3.79293 18.7931 4.03795C18.9568 4.28297 19.0442 4.57103 19.0442 4.86572C19.0442 5.26087 18.8872 5.63984 18.6078 5.91926C18.3284 6.19868 17.9494 6.35565 17.5543 6.35565Z" fill="#CACEDB"/>
</svg>
